<svg width="64" height="64" viewBox="0 0 64 64" fill="none" xmlns="http://www.w3.org/2000/svg">
<circle cx="32" cy="32" r="32" fill="#FFF6E8"/>
<path fill-rule="evenodd" clip-rule="evenodd" d="M42.4133 22.5613L45.085 27.0883C46.5024 29.4893 48.0873 32.1728 48.7664 33.3183C49.1253 33.9048 49.2957 34.5872 49.2546 35.2736C49.0222 39.492 45.6088 42.836 41.3861 42.9814C41.3578 42.9824 41.3295 42.9824 41.3012 42.9815C37.0767 42.8399 33.6601 39.4959 33.4269 35.2763C33.3828 34.5863 33.5514 33.8994 33.91 33.3084L40.2605 22.5606C40.4855 22.1798 40.8949 21.9463 41.3371 21.9465C41.7793 21.9466 42.1886 22.1804 42.4133 22.5613ZM41.336 25.6549L36.0488 34.6031C35.9543 34.7577 35.91 34.9378 35.922 35.1186L35.923 35.1335C36.0816 38.0485 38.4303 40.3622 41.3425 40.4813C44.2531 40.3596 46.5994 38.0467 46.7585 35.1333L46.759 35.1252C46.7698 34.9479 46.7256 34.7716 46.6323 34.6205L46.6207 34.6017C45.9429 33.4584 44.3525 30.7652 42.9322 28.3592L41.336 25.6549Z" fill="#FBAB34"/>
<path fill-rule="evenodd" clip-rule="evenodd" d="M33.4823 34.534C33.4823 33.8436 34.042 33.284 34.7323 33.284H47.9426C48.633 33.284 49.1926 33.8436 49.1926 34.534C49.1926 35.2243 48.633 35.784 47.9426 35.784H34.7323C34.042 35.784 33.4823 35.2243 33.4823 34.534Z" fill="#FBAB34"/>
<path fill-rule="evenodd" clip-rule="evenodd" d="M22.6683 27.4159C23.1106 27.416 23.5199 27.6498 23.7447 28.0307L30.0937 38.7916C30.45 39.3802 30.6174 40.0639 30.5731 40.7506C30.3416 44.9682 26.9282 48.3121 22.7058 48.4557C22.6778 48.4567 22.6498 48.4567 22.6218 48.4558C18.3956 48.3152 14.977 44.9696 14.7452 40.7474L14.7455 40.7528C14.7044 40.059 14.8788 39.3696 15.2446 38.779L21.5918 28.0303C21.8167 27.6495 22.2261 27.4158 22.6683 27.4159ZM22.6677 31.125L17.3898 40.0628L17.3726 40.0911C17.2764 40.2446 17.2304 40.4242 17.2411 40.6051L17.2415 40.6104C17.4015 43.525 19.7508 45.8374 22.6628 45.9556C25.5734 45.8353 27.9199 43.5218 28.0771 40.6084L28.078 40.5919C28.09 40.4139 28.0466 40.2365 27.9538 40.0841L27.9445 40.0689L22.6677 31.125Z" fill="#FBAB34"/>
<path fill-rule="evenodd" clip-rule="evenodd" d="M14.8074 40.0034C14.8074 39.3131 15.367 38.7534 16.0574 38.7534H29.2677C29.958 38.7534 30.5177 39.3131 30.5177 40.0034C30.5177 40.6938 29.958 41.2534 29.2677 41.2534H16.0574C15.367 41.2534 14.8074 40.6938 14.8074 40.0034Z" fill="#FBAB34"/>
<path fill-rule="evenodd" clip-rule="evenodd" d="M42.5363 22.8451C42.7303 23.5076 42.3506 24.202 41.6881 24.3961L23.0147 29.8655C22.3522 30.0596 21.6578 29.6798 21.4637 29.0173C21.2697 28.3548 21.6494 27.6604 22.3119 27.4663L40.9853 21.9969C41.6478 21.8028 42.3422 22.1826 42.5363 22.8451Z" fill="#FBAB34"/>
<path fill-rule="evenodd" clip-rule="evenodd" d="M30.6666 18.7451C31.357 18.7451 31.9166 19.3048 31.9166 19.9951V26.3226C31.9166 27.0129 31.357 27.5726 30.6666 27.5726C29.9763 27.5726 29.4166 27.0129 29.4166 26.3226V19.9951C29.4166 19.3048 29.9763 18.7451 30.6666 18.7451Z" fill="#FBAB34"/>
</svg>
